<svg width="34" height="34" viewBox="0 0 34 34" xmlns="http://www.w3.org/2000/svg"><path d="M21.993 13.108c-1.501-.285-3.183.328-4.097 1.329-.371-.846-1.527-1.44-3.08-1.32a20.38 20.38 0 0 0-2.768.405l-.32 1.837s1.165-.63 2.295-.638c1.13-.009 2.234.06 2.053 1.225 0 0-1.432-.052-2.7.12 0 0-2.493.208-2.907 2.114-.414 1.906.656 2.794 2.148 2.786 1.492-.01 2.61-.406 3.478-1.38.87 1.337 2.293 1.285 3.362 1.302 1.07.017 2.51-.37 2.51-.37l.362-1.864s-1.457.673-2.63.655c-1.173-.016-1.838-.172-1.717-1.242 0 0 1.725.018 2.665-.112 0 0 2.346-.284 2.83-1.802.483-1.518.017-2.76-1.484-3.045zm-6.927 5.83c-.44.44-1.384.648-1.946.201-.563-.446-.22-1.339.452-1.572.673-.233 2.2-.148 2.2-.148s-.265 1.08-.706 1.52zm5.027-2.38c-1.06.117-1.857.045-1.857.045s.072-1.074.803-1.591c.73-.518 1.785-.491 2.044.039.259.53.07 1.39-.99 1.507z" fill="#2C89A0"/><path d="M16.983 0C7.603 0 0 7.604 0 16.983c0 9.38 7.604 16.984 16.983 16.984 9.38 0 16.984-7.604 16.984-16.984C33.967 7.603 26.363 0 16.983 0zm10.495 9.05c.558.731.761 1.674.654 2.747-2.767-1.45-7.144-2.099-11.944-1.537-.185.022-.368.046-.551.07 5.04-3.022 10.023-3.664 11.841-1.28zM21.33 4.591c.97.339 1.718 1.14 2.23 2.28-2.66.225-5.967 1.495-9.21 3.662-.503.091-1.004.196-1.502.314 2.503-4.501 5.898-7.157 8.482-6.256zM6.49 25.054c-.558-.731-.762-1.674-.655-2.746 2.768 1.45 7.144 2.098 11.945 1.536.184-.021.368-.045.55-.07-5.04 3.023-10.022 3.665-11.84 1.28zm6.148 4.46c-.97-.34-1.718-1.142-2.23-2.28 2.66-.226 5.966-1.496 9.209-3.663.504-.09 1.005-.195 1.503-.313-2.504 4.5-5.898 7.157-8.482 6.255zm5.082-6.178c-7.24.847-13.437-1.28-13.844-4.75-.406-3.47 5.134-6.97 12.373-7.817 7.24-.847 13.437 1.279 13.843 4.75.406 3.47-5.133 6.97-12.372 7.817z" fill="#5FBCD3"/></svg>