<svg width="34" height="34" viewBox="0 0 34 34" xmlns="http://www.w3.org/2000/svg"><path fill="#132158" d="M17.018 14.66h-.683v2.131h.608c.458 0 1.148-.165 1.148-1.058s-.585-1.073-1.073-1.073zm-4.868 2.896h-.838V19.5h.83c.401 0 1.012-.211 1.012-.948s-.352-.996-1.004-.996zm.711-2.03c0-.64-.296-.866-.844-.866h-.705v1.692h.698c.337 0 .851-.184.851-.825z"/><path fill="#132158" d="M16.985 0C7.609 0 0 7.609 0 16.985S7.609 33.97 16.985 33.97 33.97 26.361 33.97 16.985 26.361 0 16.985 0zm12.712 19.678s-1.049 1.113-2.27 3.23c-1.223 2.117-1.663 3.582-1.663 3.582l1.512.873a14.653 14.653 0 0 1-6.223 3.645V29.21s-1.49-.352-3.933-.352c-2.444 0-3.933.352-3.933.352v1.872a14.646 14.646 0 0 1-6.393-3.622l1.681-.97s-.44-1.466-1.662-3.582c-1.222-2.117-2.27-3.23-2.27-3.23L2.806 20.68a14.685 14.685 0 0 1-.49-3.769c0-1.244.157-2.484.469-3.689l1.758 1.015s1.049-1.114 2.27-3.23C8.037 8.89 8.476 7.425 8.476 7.425L6.735 6.42a14.648 14.648 0 0 1 6.452-3.679v1.964s1.489.352 3.933.352 3.933-.352 3.933-.352v-1.89a14.657 14.657 0 0 1 6.282 3.703l-1.57.907s.44 1.465 1.661 3.582c1.222 2.117 2.271 3.23 2.271 3.23l1.522-.879c.29 1.163.435 2.356.435 3.554a14.69 14.69 0 0 1-.454 3.633l-1.503-.867z"/><path fill="#132158" d="M16.985 5.539c-6.281 0-11.373 5.092-11.373 11.373 0 6.28 5.092 11.373 11.373 11.373s11.373-5.092 11.373-11.373S23.266 5.539 16.985 5.539zm-2.54 13.47c-.192 1.384-1.43 1.823-2.24 1.823H9.988v-7.485h2.244c1.467 0 1.965.9 1.943 2.048-.029.906-.71 1.396-.99 1.43.72.202 1.45.799 1.26 2.183zm3.753 1.823l-1.158-2.714-.705.001v2.713h-1.35v-7.485h2.333c1.036 0 2.086.585 2.086 2.334 0 1.098-.405 1.778-1.062 2.133l1.347 3.018H18.2zm5.483 0l-1.487-3.082-.658 1.101v1.98h-1.33v-7.484h1.33v3.018l1.794-3.018h1.493l-1.788 2.994 2.114 4.49H23.68z"/></svg>