<svg width="34" height="34" viewBox="0 0 34 34" xmlns="http://www.w3.org/2000/svg"><path fill="#111A3E" d="M12.035 17.577h-.874v2.026h.865c.418 0 1.055-.22 1.055-.989 0-.768-.367-1.037-1.046-1.037zm5.075-3.02h-.712v2.222h.634c.477 0 1.197-.172 1.197-1.103s-.61-1.12-1.12-1.12zm-4.334.903c0-.669-.309-.903-.88-.903h-.735v1.764h.727c.352 0 .888-.192.888-.86z"/><path fill="#111A3E" d="M17 5.527c-6.287 0-11.384 5.097-11.384 11.385 0 6.287 5.097 11.384 11.384 11.384 6.288 0 11.385-5.097 11.385-11.384 0-6.288-5.097-11.385-11.385-11.385zM14.427 19.09c-.2 1.444-1.49 1.901-2.335 1.901H9.78v-7.803h2.34c1.53 0 2.049.939 2.025 2.136-.03.944-.74 1.455-1.033 1.49.751.211 1.514.833 1.315 2.276zm3.913 1.901l-1.208-2.83-.734.002v2.828H14.99v-7.803h2.433c1.08 0 2.175.61 2.175 2.433 0 1.145-.423 1.854-1.108 2.224l1.405 3.146H18.34zm6.906 0h-1.55l-1.102-2.828-1.01 2.828h-1.49l1.702-4.013-1.608-3.79h1.56l.987 2.757.891-2.757h1.514l-1.596 3.901 1.702 3.902z"/><path fill="#111A3E" d="M16.985 0C7.609 0 0 7.609 0 16.985S7.609 33.97 16.985 33.97 33.97 26.361 33.97 16.985 26.361 0 16.985 0zm12.74 19.68s-1.05 1.115-2.272 3.234c-1.224 2.119-1.664 3.586-1.664 3.586l1.513.873a14.67 14.67 0 0 1-6.23 3.65v-1.8s-1.49-.352-3.937-.352c-2.446 0-3.936.352-3.936.352v1.874a14.663 14.663 0 0 1-6.4-3.626l1.683-.971s-.44-1.467-1.664-3.586c-1.223-2.119-2.273-3.233-2.273-3.233l-1.738 1.003c-.326-1.23-.49-2.499-.49-3.772-.001-1.246.156-2.487.468-3.693l1.76 1.015s1.05-1.114 2.273-3.233c1.223-2.119 1.664-3.586 1.664-3.586L6.739 6.41a14.665 14.665 0 0 1 6.46-3.684v1.966s1.49.352 3.936.352c2.447 0 3.937-.352 3.937-.352V2.801a14.67 14.67 0 0 1 6.29 3.707l-1.573.908s.44 1.466 1.663 3.585c1.224 2.119 2.274 3.233 2.274 3.233l1.523-.879c.29 1.163.435 2.358.435 3.557 0 1.227-.152 2.448-.455 3.637l-1.503-.868z"/></svg>