<svg width="34" height="34" viewBox="0 0 34 34" xmlns="http://www.w3.org/2000/svg"><defs><linearGradient x1="18%" y1="12%" x2="78.%" y2="85%" id="a"><stop stop-color="#EBD6A9" offset="0%"/><stop stop-color="#C3BF5E" offset="32%"/><stop stop-color="#598473" offset="66%"/><stop stop-color="#4F98CB" offset="100%"/></linearGradient></defs><path fill="url(#a)" d="M16.983 0C7.603 0 0 7.604 0 16.983c0 9.38 7.604 16.984 16.984 16.984 9.38 0 16.983-7.604 16.983-16.984C33.967 7.603 26.363 0 16.983 0zm10.19 12.889c.363.502.482 1.18.521 1.606l-.142.336c-.274.645-1.944 3.618-3.626 5.736-1.456 1.835-3.645 4.012-4.17 4.528a3.746 3.746 0 0 0-.57-.428c.492-.647 2.403-3.204 3.612-5.527 1.376-2.646 2.769-6.36 2.998-7.245.303.112.953.407 1.378.994zm-4.676-3.844c.305-.006.979.05 1.748.551.745.486 1.129 1.411 1.29 1.908l-.075.293c-.182.715-1.527 4.402-2.973 7.181-1.226 2.356-3.186 4.961-3.613 5.52a3.765 3.765 0 0 0-.497-.198c.397-.816 1.987-4.149 2.729-6.678.873-2.977 1.377-6.953 1.39-8.563v-.014zm-3.395-1.784c.208-.09.62-.174 1.326.019.81.22 1.435 1.046 1.722 1.49l-.003.286c-.014 1.59-.513 5.52-1.377 8.468-.755 2.574-2.403 6-2.737 6.684a4.162 4.162 0 0 0-.5-.08c.14-.869.748-4.737 1.131-8.263.407-3.74.438-7.45.438-8.498v-.106zm-2.375-.928c.934 0 1.697.573 2.025.866v.168c0 1.044-.031 4.738-.436 8.46-.388 3.569-1.007 7.493-1.133 8.282l-.091-.002c-.176 0-.344.01-.504.027-.124-.732-.79-4.738-1.202-8.503-.448-4.097-.63-7.565-.655-8.27l-.004-.162c.32-.293 1.067-.866 2-.866zm-4.214 1.176c.877-.407 1.56-.295 1.867-.205 0 .023 0 .045.002.07.024.706.207 4.187.656 8.295.411 3.758 1.075 7.755 1.204 8.514a4.072 4.072 0 0 0-.518.131c-.325-.7-1.774-3.885-2.749-7.076-1.086-3.558-1.709-6.862-1.84-7.904l-.041-.325c.19-.423.612-1.126 1.42-1.5zM9.17 9.826a2.51 2.51 0 0 1 1.613-.488l.005.04c.132 1.052.76 4.382 1.853 7.962.969 3.173 2.404 6.34 2.755 7.098-.123.053-.24.11-.35.172-.426-.502-2.199-2.666-3.83-5.842-1.786-3.474-2.463-5.875-2.752-6.9l-.044-.156a12.168 12.168 0 0 1-.107-.398c.09-.435.312-1.087.857-1.488zm-2.907 3.157c.4-.737 1.416-1.074 1.819-1.182l.001.007.044.154c.292 1.035.976 3.46 2.777 6.966 1.608 3.128 3.355 5.29 3.844 5.87a3.6 3.6 0 0 0-.373.298 39.905 39.905 0 0 1-4.578-4.75c-1.735-2.129-2.933-4.016-3.562-5.609a16.59 16.59 0 0 1-.242-.65c.003-.334.066-.727.27-1.104zm4.55 10.41c-3.527-3.06-5.457-5.187-5.533-6.53-.059-1.026.455-1.605.702-1.823.658 1.589 1.848 3.447 3.544 5.528a40.388 40.388 0 0 0 4.602 4.776c-.13.144-.248.298-.351.462a53.718 53.718 0 0 1-2.965-2.413zm6.293 4.327c-.411 0-1.435-.523-3.048-1.705.257-.422 1.127-1.558 3.034-1.558 1.892 0 2.765 1.165 3.028 1.609-1.434 1.021-2.601 1.654-3.014 1.654zm11.583-11.043c-.073 1.296-2.266 3.868-5.02 6.468a34.362 34.362 0 0 1-3.267 2.718 3.649 3.649 0 0 0-.399-.521c.534-.525 2.731-2.71 4.197-4.557 1.685-2.123 3.363-5.104 3.665-5.797.287.19.879.704.824 1.69z"/></svg>