<svg width="34" height="34" viewBox="0 0 34 34" xmlns="http://www.w3.org/2000/svg"><defs><linearGradient x1="0%" y1="0%" y2="100%" id="a"><stop stop-color="#4B687A" offset="0%"/><stop stop-color="#8EABBB" offset="100%"/></linearGradient></defs><path fill="url(#a)" d="M6.535 12.797L.26 14.01a17.06 17.06 0 0 0 .024 6.08l6.251 1.093v-8.386zm10.448 2.784l3.925-7.783h-7.85l3.925 7.783zm-9.185-2.524v7.851l7.783-3.925-7.783-3.926zm17.938-1.195L22.104 8.23l-3.695 7.327 7.327-3.695zM10.909 7.397l-5.854-2.34 2.332 5.862 3.522-3.522zm18-2.342l-5.863 2.332 3.522 3.523 2.341-5.855zm-2.741 15.853v-7.85l-7.784 3.925 7.784 3.925zm2.743 8.001l-2.333-5.863-3.522 3.523 5.855 2.34zM22.405 6.284L28 4.059A16.937 16.937 0 0 0 21.3.554l1.106 5.73zm11.56 10.699c0-1.062-.098-2.1-.284-3.108l-6.25-1.092v8.385l6.275-1.212c.173-.982.26-1.976.26-2.973zm-6.291-5.438l5.704.996a16.939 16.939 0 0 0-3.473-6.577l-2.231 5.58zM10.919 26.578l-3.522-3.522-2.34 5.855 5.862-2.333zm16.763-4.173L29.907 28a16.936 16.936 0 0 0 3.505-6.7l-5.73 1.106zm.32 7.5l-5.581-2.231-.996 5.704a16.94 16.94 0 0 0 6.577-3.473zm-2.266-7.801l-7.327-3.695 3.695 7.327 3.632-3.632zM12.783 6.536h8.386L19.956.26a17.074 17.074 0 0 0-6.081.025l-1.092 6.25zm8.4 20.894h-8.386l1.213 6.276a17.059 17.059 0 0 0 6.08-.025l1.092-6.25zm-4.2-9.046l-3.926 7.784h7.851l-3.925-7.784zM5.964 4.061l5.58 2.231.997-5.704a16.936 16.936 0 0 0-6.577 3.473zm2.266 7.801l7.327 3.695-3.695-7.327-3.632 3.632zm-1.946-.301L4.058 5.967a16.94 16.94 0 0 0-3.504 6.7l5.73-1.106zM8.23 22.104l3.632 3.632 3.695-7.327-7.327 3.695zm3.33 5.578l-5.594 2.225a16.937 16.937 0 0 0 6.701 3.505l-1.107-5.73zM6.292 22.42l-5.704-.996a16.938 16.938 0 0 0 3.473 6.577l2.23-5.581z"/></svg>