<svg width="34" height="34" viewBox="0 0 34 34" xmlns="http://www.w3.org/2000/svg"><path fill="#212DBF" d="M19.322 14.693l2.74-.913a5.992 5.992 0 0 0-5.077-2.786 5.998 5.998 0 0 0-5.781 4.403l8.657-2.756-.54 2.052z"/><path fill="#212DBF" d="M16.985 0C7.609 0 0 7.609 0 16.985S7.609 33.97 16.985 33.97 33.97 26.361 33.97 16.985 26.361 0 16.985 0zm-5.407 19.576A6.005 6.005 0 0 0 17 22.991a5.993 5.993 0 0 0 5.302-3.19l2.292-.749c-.914 3.34-3.97 5.796-7.594 5.796a7.879 7.879 0 0 1-7.19-4.658l-1.168.405A9.097 9.097 0 0 0 17 26.092a9.093 9.093 0 0 0 8.957-7.474l1.902-.614c-.51 5.556-5.182 9.9-10.859 9.9-5.107 0-9.376-3.505-10.574-8.223l9.645-3.13-.494 2.276 10.395-3.43A9.109 9.109 0 0 0 17 7.893a9.107 9.107 0 0 0-9.092 8.553l1.273-.405A7.871 7.871 0 0 1 17 9.137a7.857 7.857 0 0 1 7.519 5.541l-7.534 2.472.63-2.112-11.4 3.655a10.417 10.417 0 0 1-.134-1.678c0-6.021 4.883-10.904 10.904-10.904 5.841 0 10.604 4.583 10.904 10.35l-14.484 4.718.45-2.367-2.277.764z"/></svg>