<svg width="34" height="34" viewBox="0 0 34 34" xmlns="http://www.w3.org/2000/svg"><circle fill="#1B54FE" cx="17" cy="17" r="17"/><path fill="#F4C41F" d="M16.985 0C7.609 0 0 7.609 0 16.985S7.609 33.97 16.985 33.97 33.97 26.361 33.97 16.985 26.361 0 16.985 0zm-3.787 9.664c.196-1.245 1.97-2.81 3.338-3.872a.725.725 0 0 1 .377-.142l.001-.003c.025-.001.047-.003.071-.001.024-.002.05 0 .074.001v.003a.715.715 0 0 1 .376.142c1.37 1.061 3.141 2.627 3.337 3.872.199 1.244-.224 2.046-.224 2.046-1.704 3.18-2.102 6.694-2.096 7.677-.73.36-2.207.36-2.932 0 0-.983-.394-4.496-2.094-7.677 0 0-.424-.802-.228-2.046zm6.984 9.91c.074.467 0-.139.188.798-2.055 1.03-4.711 1.03-6.768 0 .17-.82.138-.439.19-.799 1.88.966 4.516.956 6.39 0zM7.318 20.705c-.186.07-.254-.074-.254-.074s-.64-1.335-.78-3.625c-.086-1.56.126-2.429.126-2.429s.391-1.751 1.745-2.159c.302-.109 1.88-.367 2.685 0 .988.451 1.641.834 2.807 2.477 1.165 1.642 1.409 4.442 1.409 4.442s-1.15-.25-1.387-.66c-.237-.413-.413-1.033-1.756-2.125-.665-.542-1.313-.198-1.313-.198s-.263.17-.286.414c-.022.243-.026.79-.382 1.365-1.135 1.755-2.322 2.46-2.614 2.572zm5.152 3.73c-.379.28-.977.25-1.396.174a.987.987 0 0 1-.737-.565c-.092-.254-.092-.536-.023-.895.068-.352.125-.631.443-1.431.03-.073.118-.07.163 0 .389.556.664.732.664.732s.254.237.603 0c.347-.235 1.202-1.53 1.202-1.53l1.05.462s-.49 1.296-1.013 2.02c-.527.722-.58.754-.956 1.033zm7.06 1.158c-.553 1.07-2.062 2.487-2.251 2.628a.562.562 0 0 1-.233.1v.003h-.118v-.003a.568.568 0 0 1-.235-.1c-.19-.14-1.697-1.559-2.254-2.628-.416-.808-.705-1.158 0-2.38.706-1.222 1.082-1.556 1.082-1.556 1.466.173 1.466.173 2.932 0 0 0 .372.334 1.078 1.556.706 1.222.418 1.572 0 2.38zm4.107-1.55a.986.986 0 0 1-.741.566c-.417.076-1.017.106-1.393-.174-.377-.279-.43-.31-.955-1.033-.527-.724-1.017-2.02-1.017-2.02l1.052-.463s.853 1.296 1.203 1.53c.346.238.603 0 .603 0s.276-.175.66-.731c.049-.07.135-.073.166 0 .32.8.376 1.079.445 1.43.069.36.069.642-.023.896zm4.053-7.037c-.142 2.29-.784 3.625-.784 3.625s-.064.144-.25.074c-.293-.112-1.483-.816-2.615-2.572-.356-.576-.36-1.122-.381-1.365-.023-.244-.288-.413-.288-.413s-.648-.345-1.313.197c-1.345 1.093-1.556 1.713-1.754 2.125-.198.41-1.387.66-1.387.66s.24-2.8 1.408-4.442c1.165-1.643 1.82-2.026 2.807-2.476.805-.368 2.383-.11 2.684 0 1.352.407 1.746 2.158 1.746 2.158s.209.87.127 2.429z"/></svg>