<svg width="34" height="34" viewBox="0 0 34 34" xmlns="http://www.w3.org/2000/svg"><defs><linearGradient x1="15%" y1="10%" x2="80%" y2="100%" id="a"><stop stop-color="#CDCDCD" offset="0%"/><stop stop-color="#989898" offset="71.722%"/><stop stop-color="#949494" offset="100%"/></linearGradient></defs><path fill="url(#a)" d="M17.018.068C7.656.068.068 7.656.068 17.018c0 9.36 7.588 16.949 16.95 16.949 9.36 0 16.949-7.589 16.949-16.95 0-9.36-7.589-16.95-16.95-16.95zm10.523 8.57c-.133 1.865-2.734 4.75-3.685 5.867-.952 1.117-1.764 2.31-2.024 2.335-.26.025-1.999-.147-2.309.615-.14.342 1.872.26 1.872.26s-3.255 4.592-3.458 4.624c-.203.032-2.469-.124-3.883.162-1.415.285-1.946 1.075-1.946 1.075s2.01.178 3.412.241c1.402.063 3.559.089 3.559.089s-1.548.837-4.01.704c-2.46-.133-3.444-.33-3.444-.33s.343.895 1.022 1.326c.679.431 1.827.774 1.801.837-.025.064-1.49-.038-2.448-.5-.958-.464-1.13-1.2-1.263-1.079-.133.12.248 1.04.578 1.35.33.312 1.167.89 1.06.927-.109.038-1.999-.697-2.354-1.129-.168.359-1.957 2.24-2.029 2.041-.07-.198 1.333-1.67 1.428-2.098.095-.428-.024-1.08-.343-1.06-.318.018-.875 1.17-.875 1.17s-.21-.453-.124-.933c.086-.48.424-.833.424-.833s-.671-.718-.985-1.032c-.314-.314-1.037-.861-.952-1.047.086-.185 1.137.41 1.499.666.362.257 1.156 1.033 1.156 1.033s-.305-.966-.533-1.618c-.228-.652-.604-1.384-.518-1.45.085-.068.77.837 1.065 1.288.295.452.762 1.318.762 1.318s-.077-1.213.023-2.012c.1-.8.438-1.604.6-1.546.161.057.185.708.532 1.531.348.824.586 1.2.743 1.1.157-.1.302-1.155.207-2.69a66.185 66.185 0 0 0-.222-2.708s.938-.987 1.009-.94c.071.048.024 1.604.09 2.26.067.657.262 1.304.352 1.294.09-.01.51-.699.782-2.348.273-1.65.4-2.48.4-2.48s1.782-1.661 1.849-1.642c.066.019.138.923.247 1.247.11.323.31.475.31.475s.413-.433.532-1.427c.12-.994.129-1.39.229-1.608.1-.219 2.745-2.317 4.162-3.392 1.418-1.075 4.463-2.94 4.672-2.878.21.062 1.161 1.08 1.028 2.945z"/><path d="M14.15 21.394s3.667-3.654 5.265-5.544c1.599-1.89 4.517-6.115 4.517-6.115s-3.68 4.034-5.506 6.178c-1.827 2.144-4.276 5.481-4.276 5.481z" fill="#919191"/></svg>