<svg width="34" height="34" viewBox="0 0 34 34" xmlns="http://www.w3.org/2000/svg"><path fill="#FFCA3B" d="M16.985 0C7.609 0 0 7.609 0 16.985S7.609 33.97 16.985 33.97 33.97 26.361 33.97 16.985 26.361 0 16.985 0zm9.032 18.977c0 1.333-1.798 7.204-8.643 7.204a9.246 9.246 0 0 1-8.672-6.036H6.815a.563.563 0 0 1-.554-.554v-.464c0-.3.254-.554.554-.554h1.468a9.369 9.369 0 0 1-.135-1.843c.015-.33.03-.674.075-.988H6.815a.563.563 0 0 1-.554-.554v-.465c0-.3.254-.554.554-.554h1.752c1.184-3.684 4.629-6.38 8.658-6.44a9.224 9.224 0 0 1 7.264 3.355c.12.15.12.374-.015.509l-1.513 1.603a.513.513 0 0 1-.779-.045 6.122 6.122 0 0 0-4.823-2.337 6.154 6.154 0 0 0-5.466 3.34h1.482c.3 0 .555.255.555.554v.465c0 .3-.255.554-.555.554h-2.022c-.09.464-.134.958-.12 1.453.015.479.09.943.21 1.378h1.932c.3 0 .555.254.555.554v.464c0 .3-.255.554-.555.554h-1.243c1.049 1.693 2.89 2.861 4.988 2.936 2.561.105 4.643-1.378 5.557-3.55h-3.49a.563.563 0 0 1-.554-.554v-1.947c0-.3.254-.554.554-.554h6.276c.3 0 .554.254.554.554v1.962z"/></svg>