<svg width="34" height="34" viewBox="0 0 34 34" xmlns="http://www.w3.org/2000/svg"><path fill="#1592E6" d="M15.125 8.512c-.902-.111-1.535.228-1.916.456l-.332-.558c.4-.238 1.228-.648 2.318-.543.955.104 1.595.686 1.898.962l.074.066-.428.487-.013-.011-.03-.026-.034-.031c-.308-.278-.8-.722-1.537-.802zM17 0C7.611 0 0 7.611 0 17s7.611 17 17 17 17-7.611 17-17S26.389 0 17 0zm-6.147 10.566c.249-2.422 2.415-3.746 4.706-3.496 2.291.25 3.911 3.37 2.988 5.344-.852 1.823-2.34 2.472-3.71 2.647-1.096.14-3.511.174-4.582.174l1.992-1.348c-.547-.3-1.593-1.384-1.394-3.321zM25.993 23.7c-.01.025-.036-.05-.082-.183-.188-.543-.717-2.075-1.935-2.015-1.714.085-3.895 1.53-5.836 2.814-.822.545-1.6 1.06-2.282 1.431-2.29 1.25-4.358 1.224-5.478.8-1.12-.425-1.868-.9-2.142-2.248-.006-.03.042.002.137.064.385.254 1.558 1.027 3.175.386 2.017-.8 2.764-3.57 2.764-5.22 0-.041-.126-.063-.353-.104a8.527 8.527 0 0 1-3.407-1.344c-1.693-1.119-2.25-2.18-2.316-2.572 1.054.466 3.596 1.328 5.329 1.049 2.166-.35 4.159-1.124 5.379-2.972.3-.454.595-.927.883-1.39v-.001c.886-1.42 1.709-2.74 2.403-3.079.96-.468 2.735-.365 3.689-.31l.171.01-.035.02-.03.018c-.646.372-2.12 1.221-2.524 1.935l-.093.163-.001.002c-.497.874-1.033 1.815-1.525 3.906-.418 1.778-1.403 3.754-1.843 4.52 1.22-.4 3.94-1.04 5.055-.4 1.394.8 1.544 3.122.897 4.72z"/></svg>