<svg width="34" height="34" viewBox="0 0 34 34" xmlns="http://www.w3.org/2000/svg"><g fill="#A6BD0A"><path d="M32.252 14.615H17.72v1.042h14.65c-.029-.35-.066-.697-.118-1.042z"/><path d="M33.521 13.121v.015H17.719v.832H32.8l.047.269c.155.908.233 1.828.233 2.75 0 7.496-5.302 14.12-12.608 15.748l-.328.072-1.336-7.266.293-.074a8.753 8.753 0 0 0 5.37-4.021h-6.75v1.028h2.208a6.21 6.21 0 1 1 .608-10.58h12.649C31.018 5.015 24.59.03 16.998.03 7.628.03.03 7.626.03 16.999c0 9.37 7.598 16.968 16.968 16.968 9.371 0 16.969-7.597 16.969-16.968a16.99 16.99 0 0 0-.446-3.878zM14.914.981c.67-.085 1.353-.128 2.03-.128a16.082 16.082 0 0 1 14.94 10.03l.182.446h-8.45l-.096-.11a8.752 8.752 0 0 0-7.18-2.957l-.283.02-1.49-7.258.347-.044zm3.429 32.08c-.459.04-.929.06-1.398.06-7.125 0-13.495-4.772-15.49-11.606l-.09-.307 8.12-2.467a7.609 7.609 0 0 1-.21-1.754c0-3.216 1.992-5.971 4.804-7.109l-1.681-7.7c-6.46 1.98-10.94 8.02-10.94 14.81 0 .622.038 1.248.11 1.866l5.984-1.795v-.072a9.41 9.41 0 0 1 4.052-7.722.828.828 0 0 1-.056-.28.824.824 0 1 1 .501.758 8.763 8.763 0 0 0-3.845 7.543l.009.25-7.181 2.155-.053-.372a16.341 16.341 0 0 1-.168-2.332C.81 9.796 5.639 3.41 12.552 1.46l.33-.093 1.81 8.29a7.64 7.64 0 0 1 4.792.098.804.804 0 0 1 1.198-.06.819.819 0 1 1-1.325.913 6.79 6.79 0 0 0-2.412-.448 6.835 6.835 0 0 0-6.828 6.828 6.836 6.836 0 0 0 6.828 6.83c.954 0 1.893-.212 2.76-.594.099-.34.4-.592.772-.592a.819.819 0 1 1 0 1.638.81.81 0 0 1-.553-.222 7.692 7.692 0 0 1-2.537.584l1.3 8.401-.344.03z"/><path d="M9.658 19.366l-1.032.314a8.75 8.75 0 0 0 5.69 5.65c.142-.25.4-.425.707-.425a.824.824 0 0 1 0 1.648.815.815 0 0 1-.773-.57 9.394 9.394 0 0 1-6.242-6.116L2.17 21.641c2.012 6.395 8.043 10.834 14.775 10.834.333-.001.667-.012.996-.033l-1.206-7.795a7.676 7.676 0 0 1-7.077-5.281zm9.353-.339a.405.405 0 0 0 0 .81.405.405 0 0 0 0-.81zM16.945 7.594a9.401 9.401 0 0 1 6.963 3.088h7.186A15.431 15.431 0 0 0 16.944 1.5c-.533 0-1.071.028-1.601.082l1.236 6.019c.121-.004.243-.007.366-.007z"/><path d="M25.308 21.27a9.408 9.408 0 0 1-5.757 4.745l1.106 6.011c5.935-1.461 10.426-6.373 11.516-12.27H19.939a.987.987 0 0 1-.928.664.989.989 0 0 1 0-1.975c.43 0 .793.278.928.664H32.27c.054-.384.096-.77.12-1.16H21.741a.986.986 0 0 1-.928.664.989.989 0 0 1 0-1.975c.43 0 .793.278.928.664H32.42c.002-.106.013-.209.013-.315 0-.227-.016-.455-.026-.683H17.72v4.495h7.83l-.241.471z"/><circle cx="20.813" cy="17" r="1"/><path d="M17.543 15.657a.986.986 0 0 0-.929-.665.989.989 0 0 0 0 1.976c.43 0 .793-.278.929-.664h.177v-.647h-.177zm-.929.728a.405.405 0 1 1 0-.81.405.405 0 0 1 0 .81zm1.01 4.414a.986.986 0 0 0-.929-.664.989.989 0 0 0 0 1.975c.43 0 .793-.279.929-.664h.096v-.647h-.096zm-.929.729a.405.405 0 1 1 0-.81.405.405 0 0 1 0 .81zm-1.072-7.56a.985.985 0 0 0-.928-.664.988.988 0 0 0 0 1.975c.43 0 .793-.278.928-.664h2.097v-.647h-2.097zm-.928.729a.404.404 0 1 1 0-.81.404.404 0 0 1 0 .81z"/></g></svg>