<svg width="34" height="34" viewBox="0 0 34 34" xmlns="http://www.w3.org/2000/svg"><path fill="#37A6EF" d="M17 0C7.61 0 0 7.61 0 17c0 9.387 7.61 16.998 17 16.998 9.387 0 16.998-7.61 16.998-16.999C33.998 7.611 26.388 0 17 0zm-3.62 10.816a7.16 7.16 0 0 0-3.546 6.183 7.16 7.16 0 0 0 3.547 6.183v4.247c-4.319-1.498-7.419-5.602-7.419-10.43 0-4.828 3.1-8.931 7.419-10.43v4.247zm6.007 16.96a11.067 11.067 0 0 1-4.776 0V13.59s.923-.561 2.388-.561c1.465 0 2.388.56 2.388.56v14.188zm0-17.533A7.147 7.147 0 0 0 17 9.834c-.838 0-1.641.145-2.388.41V6.221a11.074 11.074 0 0 1 4.776 0v4.021zm1.23 17.186v-4.247A7.16 7.16 0 0 0 24.165 17a7.16 7.16 0 0 0-3.546-6.183V6.57c4.318 1.498 7.418 5.601 7.418 10.43 0 4.827-3.1 8.93-7.418 10.429z"/></svg>