<svg width="34" height="34" viewBox="0 0 34 34" xmlns="http://www.w3.org/2000/svg"><path fill="#FB4D44" d="M17.056.144C7.716.144.145 7.716.145 17.054c0 9.34 7.571 16.913 16.91 16.913 9.34 0 16.912-7.572 16.912-16.912S26.395.145 17.056.145zm9.663 16.91c0 3.1-1.463 5.852-3.732 7.62l-1.11-1.76a7.57 7.57 0 0 0 2.771-5.86 7.574 7.574 0 0 0-3.147-6.147l1.42-1.524a9.641 9.641 0 0 1 3.798 7.672zm-6.82-4.426a5.252 5.252 0 0 1 .725 8.298l-3.413-5.413 2.688-2.885zm2.533-8.549l-8.17 8.64 1.159-8.57h-3.906a13.99 13.99 0 0 1 5.54-1.138 14 14 0 0 1 5.377 1.068zM8.492 21.532a9.609 9.609 0 0 1-1.1-4.477 9.62 9.62 0 0 1 2.595-6.58L8.493 21.533zm-5.48-4.477c0-5.506 3.17-10.269 7.784-12.57l-.273 2.02c-3.528 2.188-5.878 6.093-5.878 10.55 0 3.258 1.26 6.217 3.313 8.43l-.274 2.028a14.008 14.008 0 0 1-4.672-10.458zm6.283 11.704h2.8l1.467-10.852.12.014 6.833 10.838h4.302a13.972 13.972 0 0 1-7.76 2.34c-2.87 0-5.539-.862-7.762-2.34zm16.039-.362l-.874-1.386a12.387 12.387 0 0 0 5.007-9.956c0-3.922-1.822-7.417-4.664-9.692l1.117-1.198a14.013 14.013 0 0 1 5.18 10.89c0 4.66-2.272 8.788-5.766 11.342z"/></svg>