<svg width="34" height="34" viewBox="0 0 34 34" xmlns="http://www.w3.org/2000/svg"><path fill="#FF9616" d="M16.983 0C7.603 0 0 7.604 0 16.983c0 9.38 7.604 16.984 16.984 16.984 9.38 0 16.983-7.604 16.983-16.984C33.967 7.603 26.363 0 16.983 0zm-3.435 8.925c.677-.42 2.681 2.709 3.06 2.763.38.054 1.355-.92 1.978-1.436.623-.514 3.345-2.22 3.467-2.045.122.176-1.91 1.355-3.034 2.222-1.124.866-1.923 2.194-2.817 2.194-.894 0-2.519-2.52-2.75-2.8-.23-.28-.224-.7.096-.898zm8.767 14.406l-1.698-7.043-3.634 4.37-3.697-4.37-1.698 7.043H8.374l3.214-13.508 5.395 6.61 5.26-6.61 3.178 13.508h-3.106z"/></svg>