<svg width="34" height="34" viewBox="0 0 34 34" xmlns="http://www.w3.org/2000/svg"><path fill="#E5D630" d="M16.978 0C7.601 0 0 7.602 0 16.978c0 9.377 7.601 16.979 16.978 16.979 9.377 0 16.979-7.602 16.979-16.979C33.957 7.602 26.355 0 16.978 0zm1.734 9.225v1.503L16.11 9.225h2.603zm-3.308 0l3.308 1.911v1.952l-6.681-3.863h3.373zm-4.476 15.458h-1.69V9.225h1.69v15.458zm2.043 0h-1.69V9.225l7.432 4.27v1.953L12.97 12.13v12.552zm2.273 0v-1.504l2.603 1.504h-2.603zm3.309 0l-3.309-1.911V20.82l6.682 3.863h-3.373zm4.123 0l-7.432-4.27V18.46l5.741 3.317V9.225h1.69v15.458zm2.043 0h-1.69V9.225h1.69v15.458z"/></svg>