<svg width="34" height="34" viewBox="0 0 34 34" xmlns="http://www.w3.org/2000/svg"><path fill="#FFCA3B" d="M16.95 0C7.587 0 0 7.588 0 16.95c0 9.36 7.588 16.949 16.95 16.949 9.36 0 16.949-7.589 16.949-16.95C33.899 7.59 26.31 0 16.949 0zM8.072 18.11v-1.518c0-.945 2.187-1.711 4.886-1.711 2.698 0 4.885.766 4.885 1.71v1.519c-.261.543-2.106 1.233-4.885 1.233-2.78 0-4.625-.69-4.886-1.233zm11.047 2.362c-.261.543-2.107 1.234-4.885 1.234-2.78 0-4.624-.69-4.886-1.234v-.882c.97.284 2.226.45 3.61.45 2.784 0 5.051-.67 5.512-1.629l.069-.142v-.123c.37.24.58.516.58.808v1.518zm.627.302l.07-.143v-.237a.666.666 0 0 1 .086.316v1.519c-.261.543-2.106 1.234-4.885 1.234-2.78 0-4.625-.691-4.886-1.234v-.443c1.017.385 2.47.616 4.103.616 2.784 0 5.05-.67 5.512-1.628zm-1.004 3.686c-.261.543-2.107 1.234-4.885 1.234-2.78 0-4.625-.691-4.886-1.234v-1.518c0-.26.17-.504.464-.724v.17l.069.142c.461.959 2.728 1.628 5.513 1.628 1.44 0 2.74-.18 3.725-.486v.788zm5.683-1.73c0 .944-2.187 1.71-4.886 1.71l-.101-.002V23.41c.382-.174.683-.373.886-.591 1.652-.08 3.22-.407 4.1-.97v.88zm0-1.82c-.227.47-1.644 1.051-3.827 1.198V20.71c0-.022-.003-.044-.005-.066 1.552-.1 3-.422 3.832-.955v1.22zm0-2.162c-.234.487-1.745 1.091-4.056 1.211a2.121 2.121 0 0 0-.554-.559v-.446c0-.15-.027-.298-.077-.44 1.859-.021 3.703-.356 4.687-.986v1.22zm0-2.16c-.261.542-2.107 1.233-4.886 1.233-.1 0-.197-.003-.295-.004a3.257 3.257 0 0 0-.705-.463v-.762a1.34 1.34 0 0 0-.03-.268c.34.021.686.032 1.03.032 1.925 0 3.867-.336 4.886-.989v1.22zm0-2.161c-.261.542-2.107 1.233-4.886 1.233-.507 0-.984-.023-1.426-.064-.652-.699-1.983-1.126-3.46-1.307v-1.083c1.02.652 2.961.99 4.887.99 1.924 0 3.866-.338 4.885-.99v1.22zm0-2.162c-.261.544-2.107 1.234-4.886 1.234s-4.624-.69-4.885-1.234v-1.518c0-.945 2.187-1.71 4.885-1.71 2.699 0 4.886.765 4.886 1.71v1.518z"/></svg>