<svg width="34" height="34" viewBox="0 0 34 34" xmlns="http://www.w3.org/2000/svg"><g fill="#446FBA"><path d="M17.201 7.212c-5.416 0-9.807 4.39-9.807 9.807 0 5.417 4.39 9.808 9.807 9.808 5.416 0 9.807-4.391 9.807-9.808 0-5.416-4.39-9.807-9.807-9.807zm-3.44 12.609c-.657-.144-4.337-1.111-4.886-1.255-.55-.143-1.135-.634-.764-1.571.37-.937 1.445-3.506 1.851-4.425.406-.92 2-.669 2.604-.514.564.145 3.416.836 4.014 1.004.597.167 1.41.668 1.087 1.552-.323.885-1.422 3.453-1.828 4.36-.406.908-1.421.992-2.078.849zm10.861-.416c-.242.646-1.147 2.813-1.147 2.813l-2.302-.573s.752-1.774.824-1.998c.072-.224.134-.51-.206-.609a246.15 246.15 0 0 0-2.365-.627l-1.057 2.553-2.348-.609 2.84-6.755 2.33.591-1.443 3.342 4.175-2.67 2.777.703-3.27 1.967s.896.35 1.111.672c.215.322.323.555.081 1.2z"/><path d="M17 0C7.61 0 0 7.61 0 17c0 9.387 7.61 16.998 17 16.998 9.387 0 16.998-7.61 16.998-16.999C33.998 7.611 26.388 0 17 0zm.201 29.478c-6.88 0-12.46-5.578-12.46-12.459 0-6.881 5.58-12.46 12.46-12.46 6.88 0 12.459 5.58 12.459 12.46 0 6.881-5.578 12.46-12.459 12.46z"/><path d="M14.606 14.482c-.293-.082-1.61-.402-1.887-.473-.296-.076-.758-.126-.958.326-.199.45-.768 1.78-.95 2.24-.181.459.097.632.367.702.27.07 1.659.403 1.981.473.322.07.634.044.834-.402.199-.445.777-1.782.935-2.216.159-.434-.03-.568-.322-.65z"/></g></svg>