<svg width="34" height="34" viewBox="0 0 34 34" xmlns="http://www.w3.org/2000/svg"><path fill="#1D3F7B" d="M16.984 9.323c-4.224 0-7.66 3.436-7.66 7.66s3.436 7.66 7.66 7.66c4.223 0 7.66-3.436 7.66-7.66s-3.437-7.66-7.66-7.66z"/><path fill="#1D3F7B" d="M16.983 0C7.603 0 0 7.604 0 16.983c0 9.38 7.604 16.984 16.984 16.984 9.38 0 16.983-7.604 16.983-16.984C33.967 7.603 26.363 0 16.983 0zm9.528 7.41v3.269a11.484 11.484 0 0 0-3.292-3.268h3.292zm-19.114 0h3.351a11.482 11.482 0 0 0-3.35 3.359V7.411zm0 19.114v-3.327a11.483 11.483 0 0 0 3.303 3.327H7.397zm19.114 0h-3.244c1.288-.85 2.39-1.95 3.244-3.236v3.236zm-9.527.964c-5.793 0-10.506-4.712-10.506-10.505 0-5.792 4.713-10.505 10.506-10.505 5.792 0 10.505 4.713 10.505 10.505 0 5.793-4.713 10.505-10.505 10.505z"/></svg>