<svg width="34" height="34" viewBox="0 0 34 34" xmlns="http://www.w3.org/2000/svg"><path fill="#E090B3" d="M17.884 11.773a4.663 4.663 0 0 0-4.658 4.658 4.663 4.663 0 0 0 4.658 4.658 4.663 4.663 0 0 0 4.658-4.658 4.654 4.654 0 0 0-4.658-4.658z"/><path fill="#E090B3" d="M16.985 0C7.609 0 0 7.609 0 16.985S7.609 33.97 16.985 33.97 33.97 26.361 33.97 16.985 26.361 0 16.985 0zm.899 23.575a7.19 7.19 0 0 1-4.658-1.722v5.017h-2.487V16.416c0-3.94 3.205-7.145 7.145-7.145 3.939 0 7.144 3.206 7.144 7.145.015 3.94-3.19 7.16-7.144 7.16z"/></svg>