<svg width="34" height="34" viewBox="0 0 34 34" xmlns="http://www.w3.org/2000/svg"><circle fill="#6A4EB6" cx="22" cy="22" r="1"/><circle fill="#6A4EB6" cx="12" cy="22" r="1"/><path fill="#6A4EB6" d="M16.985 0C7.609 0 0 7.609 0 16.985S7.609 33.97 16.985 33.97 33.97 26.361 33.97 16.985 26.361 0 16.985 0zm-4.81 8.133a4.043 4.043 0 1 1 0 8.085 4.043 4.043 0 0 1 0-8.085zm4.043 13.661a4.043 4.043 0 1 1-4.042-4.042 5.576 5.576 0 0 0 5.576-5.576 4.043 4.043 0 1 1 4.042 4.042 5.576 5.576 0 0 0-5.576 5.576zm5.576 4.043a4.043 4.043 0 1 1 0-8.085 4.043 4.043 0 0 1 0 8.085z"/><circle fill="#6A4EB6" cx="22" cy="12" r="1"/><circle fill="#6A4EB6" cx="12" cy="12" r="1"/></svg>