<svg width="34" height="34" viewBox="0 0 34 34" xmlns="http://www.w3.org/2000/svg"><path fill="#B60617" d="M20.897 15.312c0-2.597-2.206-3.212-3.603-3.212h-4.399v1.788h4.176c1.06 0 1.536.712 1.536 1.494s-.377 1.438-1.425 1.438h-4.287v1.913h3.659l2.192 3.115h2.71l-2.514-3.422s1.955-.516 1.955-3.114z"/><path fill="#B60617" d="M16.974 0C7.6 0 0 7.6 0 16.974c0 9.375 7.6 16.974 16.974 16.974 9.375 0 16.974-7.6 16.974-16.974S26.348 0 16.974 0zm-.74 5.62c.246-.017.493-.026.74-.027.377 0 .75.02 1.116.055v1.938a9.533 9.533 0 0 0-1.116-.066c-.25 0-.496.013-.74.032V5.62zm-1.537 22.507c-5.195-1.055-9.104-5.647-9.104-11.153s3.91-10.098 9.104-11.153v1.977c-4.121 1.02-7.177 4.74-7.177 9.176s3.056 8.157 7.177 9.176v1.977zm3.393.173c-.37.037-.743.055-1.116.055-.25 0-.496-.01-.74-.027v-1.932c.244.02.49.032.74.032.378 0 .75-.023 1.116-.066V28.3zm1.537-.259v-1.99a9.475 9.475 0 0 0 6.359-6.214h-2.08a7.5 7.5 0 0 1-14.43-2.863 7.499 7.499 0 0 1 14.067-3.617h2.167A9.478 9.478 0 0 0 19.627 7.9V5.907c5.005 1.196 8.728 5.696 8.728 11.067 0 5.372-3.723 9.872-8.728 11.067z"/></svg>