<svg width="34" height="34" viewBox="0 0 34 34" xmlns="http://www.w3.org/2000/svg"><path fill="#419EC4" d="M16.985 0C7.609 0 0 7.609 0 16.985S7.609 33.97 16.985 33.97 33.97 26.361 33.97 16.985 26.361 0 16.985 0zm-4.808 8.627l4.493 2.592-4.493 2.59V8.628zM7.19 11.518l4.494 2.591L7.189 16.7v-5.182zm0 5.782l4.494 2.59-4.494 2.592V17.3zm4.644 8.073l-4.494-2.606 4.494-2.592v5.198zm0-5.782L7.339 17l4.494-2.591v5.182zm0-5.766l-4.494-2.592 4.494-2.59v5.182zm.344 6.32l4.493 2.592-4.493 2.59v-5.182zm4.628 8.059l-4.493-2.592 4.493-2.59v5.182zm0-17.255l-4.493-2.591 4.493-2.591v5.182zm5.332-2.322l4.494 2.592-4.494 2.59V8.628zm0 5.782L26.631 17l-4.494 2.591V14.41zm-4.972-8.642l4.493 2.59-4.493 2.592V5.767zm0 22.437V23.02l4.493 2.591-4.493 2.592zm4.628-2.876L17.3 22.737l4.493-2.592v5.183zm0-5.737L17.3 17l4.493-2.591v5.182zm0-5.766L17.3 11.233l4.493-2.59v5.182zm.344 11.548V20.19l4.494 2.591-4.494 2.592zm4.644-2.891l-4.494-2.591 4.494-2.591v5.182zm0-5.767l-4.494-2.59 4.494-2.592v5.182z"/></svg>