<svg width="34" height="34" viewBox="0 0 34 34" xmlns="http://www.w3.org/2000/svg"><path d="M20.318 15.038h-.563v-.249c0-1.558-1.242-2.825-2.77-2.825-1.527 0-2.77 1.268-2.77 2.825v.25h-.563a.757.757 0 0 0-.757.756v4.33a1.027 1.027 0 0 0 1.027 1.027h6.126c.568 0 1.027-.46 1.027-1.027v-4.33a.757.757 0 0 0-.757-.757zm-2.623 4.87h-1.42l.266-2.019a.932.932 0 1 1 .888 0l.266 2.018zm.993-4.87h-3.406v-.249c0-.969.764-1.757 1.703-1.757.939 0 1.703.788 1.703 1.757v.25z" fill="#6ABEF5"/><path d="M16.985 0C7.609 0 0 7.609 0 16.985S7.609 33.97 16.985 33.97 33.97 26.361 33.97 16.985 26.361 0 16.985 0zm9.165 17.854c-.66 3.4-1.703 5.731-4.295 8.095-2.134 1.95-4.87 2.928-4.87 2.929 0 0-2.736-.979-4.87-2.93-2.592-2.363-3.634-4.694-4.295-8.094-.66-3.4.776-8.42.776-8.42s.686-.248 1.21-.677c.524-.428 1.013-1.073 1.013-1.073h12.332s.49.645 1.014 1.073c.524.43 1.21.677 1.21.677s1.436 5.02.775 8.42z" fill="#F8A338"/></svg>