<svg width="34" height="34" viewBox="0 0 34 34" xmlns="http://www.w3.org/2000/svg"><path d="M16.984 5.138c-6.524 0-11.832 5.307-11.832 11.832 0 6.524 5.308 11.832 11.832 11.832 6.525 0 11.832-5.308 11.832-11.832 0-6.525-5.307-11.832-11.832-11.832zm0 22.767c-6.03 0-10.936-4.905-10.936-10.935S10.954 6.034 16.984 6.034 27.92 10.94 27.92 16.97s-4.906 10.935-10.936 10.935z"/><path d="M25.835 17.2c.002-.076.003-.153.003-.23 0-3.715-2.3-6.902-5.55-8.214a3.51 3.51 0 0 0-6.608 0c-3.25 1.312-5.55 4.5-5.55 8.214l.002.134a3.51 3.51 0 0 0 2.657 6.185 8.826 8.826 0 0 0 6.195 2.535 8.826 8.826 0 0 0 6.184-2.524 3.51 3.51 0 0 0 2.667-6.099zm-5.341-7.26c0-.07-.003-.14-.007-.209a8.054 8.054 0 0 1 4.532 6.918 3.495 3.495 0 0 0-1.891-.335 6.187 6.187 0 0 0-3.061-4.695 3.492 3.492 0 0 0 .427-1.679zm-3.51-2.558a2.558 2.558 0 1 1 0 5.116 2.558 2.558 0 0 1 0-5.116zm-3.502 2.349c-.04.656.105 1.31.42 1.888a6.187 6.187 0 0 0-3.063 4.709 3.501 3.501 0 0 0-1.888.268 8.055 8.055 0 0 1 4.53-6.865zm-3.11 12.632a2.558 2.558 0 1 1 0-5.116 2.558 2.558 0 0 1 0 5.116zm6.612 2.65c-2.01 0-3.85-.744-5.261-1.968a3.525 3.525 0 0 0 1.493-1.185 6.144 6.144 0 0 0 3.768 1.288 6.148 6.148 0 0 0 3.697-1.23c.393.52.922.92 1.53 1.157a8.004 8.004 0 0 1-5.227 1.937zm6.5-2.65a2.558 2.558 0 1 1 0-5.116 2.558 2.558 0 0 1 0 5.116z" fill="#1592E6"/><path d="M16.984 0C7.604 0 0 7.604 0 16.984c0 9.38 7.604 16.985 16.984 16.985 9.38 0 16.985-7.604 16.985-16.985C33.969 7.604 26.365 0 16.984 0zm0 29.608c-6.968 0-12.637-5.67-12.637-12.638 0-6.969 5.669-12.638 12.637-12.638 6.969 0 12.638 5.67 12.638 12.638s-5.67 12.638-12.638 12.638z" fill="#1592E6"/></svg>